<mxfile host="app.diagrams.net" modified="2022-08-25T03:27:54.363Z" agent="5.0 (Macintosh; Intel Mac OS X 10_15_7) AppleWebKit/537.36 (KHTML, like Gecko) Chrome/104.0.0.0 Safari/537.36" etag="mXJLJtmg-TX2nZh9HvFH" version="20.2.6" type="github">
  <diagram id="NFBVKIBCmUroObu5GOF_" name="Page-1">
    <mxGraphModel dx="1298" dy="1833" grid="1" gridSize="10" guides="1" tooltips="1" connect="1" arrows="1" fold="1" page="1" pageScale="1" pageWidth="850" pageHeight="1100" math="0" shadow="0">
      <root>
        <mxCell id="0" />
        <mxCell id="1" parent="0" />
        <mxCell id="DqN2CGvn8dZwVvW-v5wD-1" value="" style="shape=actor;whiteSpace=wrap;html=1;" vertex="1" parent="1">
          <mxGeometry x="80" y="200" width="40" height="60" as="geometry" />
        </mxCell>
        <mxCell id="DqN2CGvn8dZwVvW-v5wD-2" value="FrontService" style="rounded=1;whiteSpace=wrap;html=1;" vertex="1" parent="1">
          <mxGeometry x="200" y="200" width="120" height="60" as="geometry" />
        </mxCell>
        <mxCell id="DqN2CGvn8dZwVvW-v5wD-3" value="ADX" style="rounded=1;whiteSpace=wrap;html=1;" vertex="1" parent="1">
          <mxGeometry x="400" y="200" width="120" height="60" as="geometry" />
        </mxCell>
        <mxCell id="DqN2CGvn8dZwVvW-v5wD-4" value="LogService" style="rounded=1;whiteSpace=wrap;html=1;" vertex="1" parent="1">
          <mxGeometry x="360" y="-10" width="120" height="60" as="geometry" />
        </mxCell>
        <mxCell id="DqN2CGvn8dZwVvW-v5wD-5" value="BillingService" style="rounded=1;whiteSpace=wrap;html=1;" vertex="1" parent="1">
          <mxGeometry x="560" y="-10" width="120" height="60" as="geometry" />
        </mxCell>
        <mxCell id="DqN2CGvn8dZwVvW-v5wD-6" value="BrandDSP" style="rounded=1;whiteSpace=wrap;html=1;" vertex="1" parent="1">
          <mxGeometry x="600" y="120" width="120" height="60" as="geometry" />
        </mxCell>
        <mxCell id="DqN2CGvn8dZwVvW-v5wD-7" value="UserProfile" style="rounded=1;whiteSpace=wrap;html=1;" vertex="1" parent="1">
          <mxGeometry x="360" y="320" width="120" height="60" as="geometry" />
        </mxCell>
        <mxCell id="DqN2CGvn8dZwVvW-v5wD-8" value="Ad Index" style="shape=cylinder3;whiteSpace=wrap;html=1;boundedLbl=1;backgroundOutline=1;size=15;" vertex="1" parent="1">
          <mxGeometry x="800" y="190" width="60" height="80" as="geometry" />
        </mxCell>
        <mxCell id="DqN2CGvn8dZwVvW-v5wD-9" value="SSP" style="rounded=1;whiteSpace=wrap;html=1;" vertex="1" parent="1">
          <mxGeometry x="220" y="320" width="120" height="60" as="geometry" />
        </mxCell>
        <mxCell id="DqN2CGvn8dZwVvW-v5wD-10" value="PerformanceDSP" style="rounded=1;whiteSpace=wrap;html=1;" vertex="1" parent="1">
          <mxGeometry x="600" y="200" width="120" height="60" as="geometry" />
        </mxCell>
        <mxCell id="DqN2CGvn8dZwVvW-v5wD-11" value="3rd DSPs" style="rounded=1;whiteSpace=wrap;html=1;" vertex="1" parent="1">
          <mxGeometry x="600" y="280" width="120" height="60" as="geometry" />
        </mxCell>
        <mxCell id="DqN2CGvn8dZwVvW-v5wD-12" value="AntiSpam" style="rounded=1;whiteSpace=wrap;html=1;" vertex="1" parent="1">
          <mxGeometry x="560" y="-100" width="120" height="60" as="geometry" />
        </mxCell>
        <mxCell id="DqN2CGvn8dZwVvW-v5wD-13" value="RetrieveService" style="rounded=1;whiteSpace=wrap;html=1;" vertex="1" parent="1">
          <mxGeometry x="280" y="520" width="120" height="60" as="geometry" />
        </mxCell>
        <mxCell id="DqN2CGvn8dZwVvW-v5wD-14" value="RankService" style="rounded=1;whiteSpace=wrap;html=1;" vertex="1" parent="1">
          <mxGeometry x="280" y="600" width="120" height="60" as="geometry" />
        </mxCell>
        <mxCell id="DqN2CGvn8dZwVvW-v5wD-15" value="BidService" style="rounded=1;whiteSpace=wrap;html=1;" vertex="1" parent="1">
          <mxGeometry x="280" y="680" width="120" height="60" as="geometry" />
        </mxCell>
        <mxCell id="DqN2CGvn8dZwVvW-v5wD-17" value="AuctionLog" style="shape=cylinder3;whiteSpace=wrap;html=1;boundedLbl=1;backgroundOutline=1;size=15;" vertex="1" parent="1">
          <mxGeometry x="690" y="470" width="100" height="75" as="geometry" />
        </mxCell>
        <mxCell id="DqN2CGvn8dZwVvW-v5wD-18" value="AdLog" style="shape=cylinder3;whiteSpace=wrap;html=1;boundedLbl=1;backgroundOutline=1;size=15;" vertex="1" parent="1">
          <mxGeometry x="570" y="475" width="100" height="75" as="geometry" />
        </mxCell>
        <mxCell id="DqN2CGvn8dZwVvW-v5wD-19" value="TraceLog" style="shape=cylinder3;whiteSpace=wrap;html=1;boundedLbl=1;backgroundOutline=1;size=15;" vertex="1" parent="1">
          <mxGeometry x="800" y="470" width="100" height="75" as="geometry" />
        </mxCell>
        <mxCell id="DqN2CGvn8dZwVvW-v5wD-20" value="TrafficDetection" style="rounded=1;whiteSpace=wrap;html=1;" vertex="1" parent="1">
          <mxGeometry x="80" y="320" width="120" height="60" as="geometry" />
        </mxCell>
      </root>
    </mxGraphModel>
  </diagram>
</mxfile>
